<svg viewBox="0 0 48 48" xmlns="http://www.w3.org/2000/svg" id="dsmIcon"><g id="Icon/48/field_BW" stroke-width="1" fill-rule="evenodd"><path id="Bg" fill="#FFF" transform="rotate(-180 24.643 23.572)" d="M24.643 3.572l14.4 14.904-3.481 3.603-8.12-8.405.001 29.898h-5.6l-.001-29.895-8.118 8.402-3.48-3.603z"/><path d="M24.643.495l18.679 19.333-7.76 8.031-5.044-5.22L30.52 48H18.766l-.003-25.359-5.039 5.218-7.76-8.031L24.645.495zm0 4.428l-14.4 14.905 3.481 3.603 8.118-8.402.001 29.894h5.6l-.001-29.898 8.12 8.406 3.481-3.603-14.4-14.905z" id="Combined-Shape" transform="rotate(-180 24.643 24.247)"/></g></svg>