<svg xmlns="http://www.w3.org/2000/svg" viewBox="0 0 48 48" id="dsmIcon"><g id="Icon/48/large_hub" stroke-width="1" fill-rule="evenodd"><g id="Group-25" transform="translate(7)"><path d="M17 38a2.253 2.253 0 00-2.25 2.25c0 1.24 1.009 2.25 2.25 2.25s2.25-1.01 2.25-2.25S18.241 38 17 38m0 6a3.755 3.755 0 01-3.75-3.75A3.755 3.755 0 0117 36.5a3.755 3.755 0 013.75 3.75A3.755 3.755 0 0117 44" id="Fill-3" fill="#FFFFFF"/><path d="M28 0H6a6 6 0 00-6 6v36a6 6 0 006 6h22a6 6 0 006-6V6a6 6 0 00-6-6m0 1.5c2.481 0 4.5 2.019 4.5 4.5v36c0 2.481-2.019 4.5-4.5 4.5H6A4.505 4.505 0 011.5 42V6c0-2.481 2.019-4.5 4.5-4.5h22" id="Fill-5" fill="#FFFFFF"/><path d="M10 30v4H6v-4h4zm6 0v4h-4v-4h4zm6 0v4h-4v-4h4zm6 0v4h-4v-4h4zm-18-6v4H6v-4h4zm6 0v4h-4v-4h4zm6 0v4h-4v-4h4zm6 0v4h-4v-4h4zm-18-6v4H6v-4h4zm6 0v4h-4v-4h4zm6 0v4h-4v-4h4zm6 0v4h-4v-4h4zm-18-6v4H6v-4h4zm6 0v4h-4v-4h4zm6 0v4h-4v-4h4zm6 0v4h-4v-4h4zm-2-7a2 2 0 11-.001 4.001A2 2 0 0126 5z" id="Combined-Shape" fill="#FFFFFF"/></g></g></svg>
