<svg viewBox="0 0 48 48" xmlns="http://www.w3.org/2000/svg" id="dsmIcon"><g id="Icon/48/hub-small" stroke-width="1" fill-rule="evenodd"><path d="M32.75 37V11c0-.947-.798-1.75-1.75-1.75H17c-.953 0-1.75.802-1.75 1.75v26c0 .947.798 1.75 1.75 1.75h14c.952 0 1.75-.803 1.75-1.75z" id="Path" fill="#FFF" fill-rule="nonzero"/><path d="M31 6.75c2.336 0 4.25 1.925 4.25 4.25v26c0 2.324-1.914 4.25-4.25 4.25H17c-2.337 0-4.25-1.926-4.25-4.25V11c0-2.325 1.913-4.25 4.25-4.25h14zm0 2.5H17c-.953 0-1.75.802-1.75 1.75v26c0 .947.798 1.75 1.75 1.75h14c.952 0 1.75-.803 1.75-1.75V11c0-.947-.798-1.75-1.75-1.75zm-7 19.5a4.253 4.253 0 014.245 4.044l.005.205c0 2.35-1.901 4.251-4.25 4.251A4.248 4.248 0 0119.75 33 4.248 4.248 0 0124 28.75zm0 2.5c-.968 0-1.75.782-1.75 1.75s.782 1.75 1.75 1.75c.92 0 1.671-.706 1.744-1.607L25.75 33c0-.963-.785-1.749-1.75-1.749zM28.987 11c1.098 0 1.986.899 1.986 2 0 1.106-.888 2-1.986 2A1.992 1.992 0 0127 13c0-1.105.888-2 1.987-2z" id="Combined-Shape"/></g></svg>