<svg xmlns="http://www.w3.org/2000/svg" viewBox="0 0 48 48" id="dsmIcon"><g id="Icon/48/light-matrix" stroke-width="1" fill-rule="evenodd"><rect x="6" y="6" width="36" height="36" rx="4" ry="4" fill="none" stroke="#FFFFFF" stroke-width="2"/><g fill="#FFFFFF"><circle cx="12" cy="12" r="1.6"/><circle cx="18" cy="12" r="1.6"/><circle cx="24" cy="12" r="1.6"/><circle cx="30" cy="12" r="1.6"/><circle cx="36" cy="12" r="1.6"/><circle cx="12" cy="18" r="1.6"/><circle cx="18" cy="18" r="1.6"/><circle cx="24" cy="18" r="1.6"/><circle cx="30" cy="18" r="1.6"/><circle cx="36" cy="18" r="1.6"/><circle cx="12" cy="24" r="1.6"/><circle cx="18" cy="24" r="1.6"/><circle cx="24" cy="24" r="1.6"/><circle cx="30" cy="24" r="1.6"/><circle cx="36" cy="24" r="1.6"/><circle cx="12" cy="30" r="1.6"/><circle cx="18" cy="30" r="1.6"/><circle cx="24" cy="30" r="1.6"/><circle cx="30" cy="30" r="1.6"/><circle cx="36" cy="30" r="1.6"/><circle cx="12" cy="36" r="1.6"/><circle cx="18" cy="36" r="1.6"/><circle cx="24" cy="36" r="1.6"/><circle cx="30" cy="36" r="1.6"/><circle cx="36" cy="36" r="1.6"/></g></g></svg>
