<svg xmlns="http://www.w3.org/2000/svg" viewBox="0 0 48 48" id="dsmIcon"><g id="Icon/48/move" stroke-width="1" fill-rule="evenodd"><path d="M9.931 38.069A20.405 20.405 0 0020.5 41C31.822 41 41 31.822 41 20.5c0-3.866-1.07-7.483-2.931-10.569C44.02 13.519 48 20.045 48 27.5 48 38.822 38.822 48 27.5 48c-7.455 0-13.981-3.98-17.569-9.931z" id="Bg-2" fill="#FFF"/><path d="M27.5 33.324a5.358 5.358 0 110 10.716 5.358 5.358 0 010-10.716zM44.04 27.5a5.358 5.358 0 11-10.716 0 5.358 5.358 0 0110.716 0zM27.5 48C38.822 48 48 38.822 48 27.5S38.822 7 27.5 7 7 16.178 7 27.5 16.178 48 27.5 48zm0-1.5c-10.493 0-19-8.507-19-19s8.507-19 19-19 19 8.507 19 19-8.507 19-19 19z" id="Combined-Shape-2" fill="#FFFFFF"/><circle id="Bg-1" fill="#FFF" cx="20.5" cy="20.5" r="20.5"/><path d="M14.676 20.5a5.358 5.358 0 11-10.716 0 5.358 5.358 0 0110.716 0zm22.364 0a5.358 5.358 0 11-10.716 0 5.358 5.358 0 0110.716 0zm-17.555.973h-1.81a1 1 0 010-2h1.81v-1.768a1 1 0 012 0v1.768h1.81a1 1 0 010 2h-1.81v1.822a1 1 0 01-2 0v-1.822zm1.015 4.85a5.358 5.358 0 110 10.717 5.358 5.358 0 010-10.716zm0-22.363a5.358 5.358 0 110 10.716 5.358 5.358 0 010-10.716zm0 37.04C31.822 41 41 31.822 41 20.5S31.822 0 20.5 0 0 9.178 0 20.5 9.178 41 20.5 41zm0-1.5c-10.493 0-19-8.507-19-19s8.507-19 19-19 19 8.507 19 19-8.507 19-19 19z" id="Combined-Shape-1" fill="#FFFFFF"/></g></svg>
