<svg viewBox="0 0 58 58" xmlns="http://www.w3.org/2000/svg" id="dsmIcon"><g id="icon/48/sound" stroke-width="1" fill-rule="evenodd"><g id="Group-68" transform="translate(9 12)" fill-rule="nonzero"><path d="M30.461 14.176a3.763 3.763 0 011.862 3.253 3.763 3.763 0 01-1.862 3.254l-.863.505 1.01 1.726.863-.505a5.763 5.763 0 002.852-4.98 5.763 5.763 0 00-2.852-4.98l-.863-.504-1.01 1.726.863.505z" id="Stroke-35"/><path d="M31.64 7.609a11.357 11.357 0 015.62 9.82c0 4.094-2.17 7.803-5.62 9.82l-.864.505 1.01 1.727.863-.505a13.355 13.355 0 006.61-11.547c0-4.81-2.551-9.171-6.61-11.546l-.863-.505-1.01 1.726.863.505z" id="Stroke-37"/><path d="M3.608 26.662a3.049 3.049 0 01-3.04-3.058v-12.35a3.05 3.05 0 013.04-3.058h7.81L21.115.664c2-1.553 4.894-.114 4.894 2.42v28.689c0 2.536-2.894 3.975-4.894 2.422l-9.699-7.533h-7.81zm8.766-1.79l9.969 7.743c.68.529 1.667.038 1.667-.842V3.085c0-.88-.987-1.37-1.667-.842l-10.24 7.953H3.608a1.05 1.05 0 00-1.04 1.059v12.35c0 .586.468 1.057 1.04 1.057h8.495l.27.21z" id="Stroke-39"/></g></g></svg>